<svg width="130" height="57" viewBox="0 0 130 57" fill="none" xmlns="http://www.w3.org/2000/svg">
<path d="M31.616 41.728C32.1707 41.728 32.5973 41.984 32.896 42.496C33.2373 43.008 33.408 43.712 33.408 44.608C33.408 46.3147 33.0027 47.6373 32.192 48.576C30.3573 50.8373 28.352 52.6933 26.176 54.144C24 55.5947 21.504 56.32 18.688 56.32C9.984 56.32 5.632 50.1973 5.632 37.952C5.632 36.0747 5.696 34.176 5.824 32.256H3.328C2.048 32.256 1.17333 32.0213 0.704 31.552C0.277333 31.0827 0.064 30.336 0.064 29.312C0.064 26.9227 1.024 25.728 2.944 25.728H6.592C7.31733 21.0347 8.42667 16.7467 9.92 12.864C11.4133 8.98133 13.2053 5.888 15.296 3.584C17.4293 1.28 19.712 0.127998 22.144 0.127998C23.936 0.127998 25.344 0.917332 26.368 2.496C27.392 4.07467 27.904 6.05866 27.904 8.448C27.904 15.0613 25.1307 20.8213 19.584 25.728H26.752C27.4347 25.728 27.9253 25.8773 28.224 26.176C28.5227 26.4747 28.672 27.0293 28.672 27.84C28.672 30.784 26.2613 32.256 21.44 32.256H13.632C13.5467 34.3893 13.504 36.0533 13.504 37.248C13.504 41.6853 14.016 44.8 15.04 46.592C16.1067 48.384 17.7707 49.28 20.032 49.28C21.8667 49.28 23.488 48.7253 24.896 47.616C26.304 46.5067 27.968 44.8427 29.888 42.624C30.4 42.0267 30.976 41.728 31.616 41.728ZM20.416 6.272C19.776 6.272 19.0507 7.08267 18.24 8.704C17.472 10.2827 16.7253 12.5013 16 15.36C15.3173 18.176 14.7413 21.312 14.272 24.768C16.7893 22.592 18.6667 20.16 19.904 17.472C21.184 14.7413 21.824 12.2667 21.824 10.048C21.824 7.53067 21.3547 6.272 20.416 6.272ZM34.725 56.32C32.805 56.32 31.2263 55.4453 29.989 53.696C28.7943 51.904 28.197 49.6853 28.197 47.04C28.197 43.84 28.4103 40.9173 28.837 38.272C29.2637 35.584 29.9677 32.7467 30.949 29.76C31.3757 28.48 31.973 27.5627 32.741 27.008C33.509 26.4533 34.725 26.176 36.389 26.176C37.3277 26.176 37.9677 26.3253 38.309 26.624C38.693 26.9227 38.885 27.3707 38.885 27.968C38.885 28.3093 38.6503 29.4613 38.181 31.424C37.7543 33.0027 37.413 34.432 37.157 35.712C36.3037 40.192 35.877 43.1787 35.877 44.672C35.877 45.568 35.9837 46.208 36.197 46.592C36.4103 46.9333 36.7517 47.104 37.221 47.104C37.861 47.104 38.6503 46.464 39.589 45.184C40.5703 43.904 41.5943 41.9627 42.661 39.36C43.7703 36.7573 44.837 33.5573 45.861 29.76C46.2023 28.48 46.7143 27.5627 47.397 27.008C48.1223 26.4533 49.189 26.176 50.597 26.176C51.5783 26.176 52.261 26.304 52.645 26.56C53.029 26.7733 53.221 27.2 53.221 27.84C53.221 28.9067 52.6877 31.8293 51.621 36.608C50.4263 42.0693 49.829 45.44 49.829 46.72C49.829 47.5307 49.9997 48.1707 50.341 48.64C50.6823 49.0667 51.1303 49.28 51.685 49.28C52.5383 49.28 53.541 48.768 54.693 47.744C55.8877 46.6773 57.4663 44.9707 59.429 42.624C59.941 42.0267 60.517 41.728 61.157 41.728C61.7117 41.728 62.1383 41.984 62.437 42.496C62.7783 43.008 62.949 43.712 62.949 44.608C62.949 46.3147 62.5437 47.6373 61.733 48.576C59.8983 50.8373 57.9143 52.6933 55.781 54.144C53.6903 55.5947 51.301 56.32 48.613 56.32C46.565 56.32 45.0503 55.5307 44.069 53.952C43.1303 52.3733 42.661 50.1547 42.661 47.296C41.9357 50.1973 40.8477 52.4373 39.397 54.016C37.9463 55.552 36.389 56.32 34.725 56.32ZM62.3035 56.32C60.6822 56.32 59.5302 55.4667 58.8475 53.76C58.2075 52.0533 57.8875 49.3227 57.8875 45.568C57.8875 40.0213 58.6768 34.752 60.2555 29.76C60.6395 28.5227 61.2582 27.6267 62.1115 27.072C63.0075 26.4747 64.2448 26.176 65.8235 26.176C66.6768 26.176 67.2742 26.2827 67.6155 26.496C67.9568 26.7093 68.1275 27.1147 68.1275 27.712C68.1275 28.3947 67.8075 29.9307 67.1675 32.32C66.7408 34.0267 66.3995 35.52 66.1435 36.8C65.8875 38.08 65.6742 39.6587 65.5035 41.536C66.9115 37.8667 68.4902 34.88 70.2395 32.576C71.9888 30.272 73.6955 28.6293 75.3595 27.648C77.0662 26.6667 78.6235 26.176 80.0315 26.176C82.8048 26.176 84.1915 27.5627 84.1915 30.336C84.1915 32 83.7222 35.008 82.7835 39.36C81.9728 43.072 81.5675 45.5253 81.5675 46.72C81.5675 48.4267 82.1862 49.28 83.4235 49.28C84.2768 49.28 85.2795 48.768 86.4315 47.744C87.6262 46.6773 89.2048 44.9707 91.1675 42.624C91.6795 42.0267 92.2555 41.728 92.8955 41.728C93.4502 41.728 93.8768 41.984 94.1755 42.496C94.5168 43.008 94.6875 43.712 94.6875 44.608C94.6875 46.3147 94.2822 47.6373 93.4715 48.576C91.6368 50.8373 89.6528 52.6933 87.5195 54.144C85.4288 55.5947 83.0395 56.32 80.3515 56.32C78.1755 56.32 76.5328 55.7013 75.4235 54.464C74.3142 53.184 73.7595 51.3493 73.7595 48.96C73.7595 47.7653 74.0582 45.632 74.6555 42.56C75.2102 39.872 75.4875 38.016 75.4875 36.992C75.4875 36.3093 75.2528 35.968 74.7835 35.968C74.2288 35.968 73.4395 36.6933 72.4155 38.144C71.4342 39.552 70.4102 41.4293 69.3435 43.776C68.3195 46.1227 67.4875 48.5973 66.8475 51.2C66.3782 53.2053 65.8235 54.5707 65.1835 55.296C64.5862 55.9787 63.6262 56.32 62.3035 56.32ZM112.422 43.648C112.976 43.648 113.403 43.904 113.702 44.416C114.043 44.928 114.214 45.632 114.214 46.528C114.214 48.064 113.851 49.3867 113.126 50.496C111.931 52.3307 110.352 53.76 108.39 54.784C106.47 55.808 104.166 56.32 101.478 56.32C97.3815 56.32 94.2028 55.104 91.9415 52.672C89.6802 50.1973 88.5495 46.8693 88.5495 42.688C88.5495 39.744 89.1682 37.0133 90.4055 34.496C91.6428 31.936 93.3495 29.9093 95.5255 28.416C97.7442 26.9227 100.24 26.176 103.014 26.176C105.488 26.176 107.472 26.9227 108.966 28.416C110.459 29.8667 111.206 31.8507 111.206 34.368C111.206 37.312 110.139 39.8507 108.006 41.984C105.915 44.0747 102.331 45.7387 97.2535 46.976C98.2775 48.9387 100.006 49.92 102.438 49.92C104.187 49.92 105.616 49.5147 106.726 48.704C107.878 47.8933 109.2 46.528 110.694 44.608C111.206 43.968 111.782 43.648 112.422 43.648ZM101.926 32.448C100.347 32.448 99.0028 33.3653 97.8935 35.2C96.8268 37.0347 96.2935 39.2533 96.2935 41.856V41.984C98.8108 41.3867 100.795 40.4907 102.246 39.296C103.696 38.1013 104.422 36.7147 104.422 35.136C104.422 34.3253 104.187 33.6853 103.718 33.216C103.291 32.704 102.694 32.448 101.926 32.448ZM123.113 56.32C121.236 56.32 119.806 55.808 118.825 54.784C117.886 53.76 117.417 52.416 117.417 50.752C117.417 48.832 117.95 47.296 119.017 46.144C120.126 44.992 121.662 44.416 123.625 44.416C125.502 44.416 126.91 44.8853 127.849 45.824C128.83 46.72 129.321 48.064 129.321 49.856C129.321 51.8187 128.766 53.3973 127.657 54.592C126.548 55.744 125.033 56.32 123.113 56.32Z" fill="#00CEC9"/>
</svg>
